<svg class="w-6 h-6" xmlns="http://www.w3.org/2000/svg" width="32" height="32" viewBox="-4 -4 40 40"><path data-color="color-2" d="M16,28c-1.414,0-2.738-.05-3.986-.139,0,.047-.014.091-.014.139a4,4,0,0,0,8,0c0-.048-.012-.092-.014-.139C18.738,27.95,17.414,28,16,28Z" fill="#686583"/> <path d="M26.294,14.054V9.938A10.386,10.386,0,0,0,16,0,10.473,10.473,0,0,0,5.706,10.039v4.015C5.706,18.571,2,19.375,2,21.884,2,24.193,7.456,26,16,26s14-1.807,14-4.116C30,19.375,26.294,18.571,26.294,14.054Z" fill="#686583"/></svg>